HIERARCHY
ROOT pelvis
{
	OFFSET 0.003123 -0.351407 0.012037
	CHANNELS 6 Xposition Yposition Zposition Zrotation Yrotation Xrotation 
	JOINT left_hip
	{
		OFFSET 0.058189 -0.092763 -0.026001
		CHANNELS 3 Zrotation Yrotation Xrotation
		JOINT left_knee
		{
			OFFSET 0.054695 -0.378753 -0.009396
			CHANNELS 3 Zrotation Yrotation Xrotation
			JOINT left_ankle
			{
				OFFSET -0.043453 -0.403059 -0.031876
				CHANNELS 3 Zrotation Yrotation Xrotation
				JOINT left_foot
				{
					OFFSET 0.047257 -0.057997 0.118216
					CHANNELS 3 Zrotation Yrotation Xrotation
					End Site
					{
						OFFSET 0.000000 0.000000 0.000000
					}
				}
			}
		}
	}
	JOINT right_hip
	{
		OFFSET -0.063267 -0.103908 -0.021250
		CHANNELS 3 Zrotation Yrotation Xrotation
		JOINT right_knee
		{
			OFFSET -0.044210 -0.362380 -0.016824
			CHANNELS 3 Zrotation Yrotation Xrotation
			JOINT right_ankle
			{
				OFFSET 0.015417 -0.410728 -0.020192
				CHANNELS 3 Zrotation Yrotation Xrotation
				JOINT right_foot
				{
					OFFSET -0.038812 -0.058328 0.119049
					CHANNELS 3 Zrotation Yrotation Xrotation
					End Site
					{
						OFFSET 0.000000 0.000000 0.000000
					}
				}
			}
		}
	}
	JOINT spine_1
	{
		OFFSET -0.002763 0.109891 -0.027618
		CHANNELS 3 Zrotation Yrotation Xrotation
		JOINT spine_2
		{
			OFFSET 0.009448 0.131853 -0.005940
			CHANNELS 3 Zrotation Yrotation Xrotation
			JOINT spine_3
			{
				OFFSET -0.011330 0.052235 0.028447
				CHANNELS 3 Zrotation Yrotation Xrotation
				JOINT neck
				{
					OFFSET -0.012164 0.165167 -0.031615
					CHANNELS 3 Zrotation Yrotation Xrotation
					JOINT head
					{
						OFFSET 0.024783 0.160452 0.020737
						CHANNELS 3 Zrotation Yrotation Xrotation
						End Site
						{
							OFFSET 0.000000 0.000000 0.000000
						}
					}
				}
				JOINT left_collar
				{
					OFFSET 0.046364 0.084944 -0.007220
					CHANNELS 3 Zrotation Yrotation Xrotation
					JOINT left_shoulder
					{
						OFFSET 0.119239 0.057728 -0.015461
						CHANNELS 3 Zrotation Yrotation Xrotation
						JOINT left_elbow
						{
							OFFSET 0.254123 -0.072151 -0.042459
							CHANNELS 3 Zrotation Yrotation Xrotation
							JOINT left_wrist
							{
								OFFSET 0.251987 0.023221 -0.002472
								CHANNELS 3 Zrotation Yrotation Xrotation
								JOINT left_index_1
								{
									OFFSET 0.101902 -0.008688 0.019351
									CHANNELS 3 Zrotation Yrotation Xrotation
									JOINT left_index_2
									{
										OFFSET 0.030149 -0.011154 0.001151
										CHANNELS 3 Zrotation Yrotation Xrotation
										JOINT left_index_3
										{
											OFFSET 0.006504 -0.021577 -0.002433
											CHANNELS 3 Zrotation Yrotation Xrotation
											End Site
											{
												OFFSET 0.000000 0.000000 0.000000
											}
										}
									}
								}
								JOINT left_middle_1
								{
									OFFSET 0.109398 -0.006328 -0.003981
									CHANNELS 3 Zrotation Yrotation Xrotation
									JOINT left_middle_2
									{
										OFFSET 0.026472 -0.015218 -0.004641
										CHANNELS 3 Zrotation Yrotation Xrotation
										JOINT left_middle_3
										{
											OFFSET 0.005022 -0.023347 -0.001911
											CHANNELS 3 Zrotation Yrotation Xrotation
											End Site
											{
												OFFSET 0.000000 0.000000 0.000000
											}
										}
									}
								}
								JOINT left_pinky_1
								{
									OFFSET 0.084047 -0.014539 -0.043750
									CHANNELS 3 Zrotation Yrotation Xrotation
									JOINT left_pinky_2
									{
										OFFSET 0.012124 -0.014448 -0.005375
										CHANNELS 3 Zrotation Yrotation Xrotation
										JOINT left_pinky_3
										{
											OFFSET 0.003798 -0.018853 0.000167
											CHANNELS 3 Zrotation Yrotation Xrotation
											End Site
											{
												OFFSET 0.000000 0.000000 0.000000
											}
										}
									}
								}
								JOINT left_ring_1
								{
									OFFSET 0.097444 -0.009268 -0.027345
									CHANNELS 3 Zrotation Yrotation Xrotation
									JOINT left_ring_2
									{
										OFFSET 0.023561 -0.016057 -0.001895
										CHANNELS 3 Zrotation Yrotation Xrotation
										JOINT left_ring_3
										{
											OFFSET 0.004257 -0.023548 0.000814
											CHANNELS 3 Zrotation Yrotation Xrotation
											End Site
											{
												OFFSET 0.000000 0.000000 0.000000
											}
										}
									}
								}
								JOINT left_thumb_1
								{
									OFFSET 0.040636 -0.017977 0.025611
									CHANNELS 3 Zrotation Yrotation Xrotation
									JOINT left_thumb_2
									{
										OFFSET 0.021637 -0.017639 0.011623
										CHANNELS 3 Zrotation Yrotation Xrotation
										JOINT left_thumb_3
										{
											OFFSET 0.024002 -0.008356 0.006548
											CHANNELS 3 Zrotation Yrotation Xrotation
											End Site
											{
												OFFSET 0.000000 0.000000 0.000000
											}
										}
									}
								}
							}
						}
					}
				}
				JOINT right_collar
				{
					OFFSET -0.047695 0.084339 -0.013400
					CHANNELS 3 Zrotation Yrotation Xrotation
					JOINT right_shoulder
					{
						OFFSET -0.102578 0.053524 -0.012669
						CHANNELS 3 Zrotation Yrotation Xrotation
						JOINT right_elbow
						{
							OFFSET -0.271150 -0.036492 -0.026467
							CHANNELS 3 Zrotation Yrotation Xrotation
							JOINT right_wrist
							{
								OFFSET -0.249267 -0.004533 -0.015325
								CHANNELS 3 Zrotation Yrotation Xrotation
								JOINT right_index_1
								{
									OFFSET -0.099881 -0.011783 0.019600
									CHANNELS 3 Zrotation Yrotation Xrotation
									JOINT right_index_2
									{
										OFFSET -0.030148 -0.011154 0.001151
										CHANNELS 3 Zrotation Yrotation Xrotation
										JOINT right_index_3
										{
											OFFSET -0.006505 -0.021577 -0.002432
											CHANNELS 3 Zrotation Yrotation Xrotation
											End Site
											{
												OFFSET 0.000000 0.000000 0.000000
											}
										}
									}
								}
								JOINT right_middle_1
								{
									OFFSET -0.107376 -0.009422 -0.003734
									CHANNELS 3 Zrotation Yrotation Xrotation
									JOINT right_middle_2
									{
										OFFSET -0.026472 -0.015218 -0.004641
										CHANNELS 3 Zrotation Yrotation Xrotation
										JOINT right_middle_3
										{
											OFFSET -0.005022 -0.023347 -0.001911
											CHANNELS 3 Zrotation Yrotation Xrotation
											End Site
											{
												OFFSET 0.000000 0.000000 0.000000
											}
										}
									}
								}
								JOINT right_pinky_1
								{
									OFFSET -0.082027 -0.017634 -0.043503
									CHANNELS 3 Zrotation Yrotation Xrotation
									JOINT right_pinky_2
									{
										OFFSET -0.012123 -0.014448 -0.005374
										CHANNELS 3 Zrotation Yrotation Xrotation
										JOINT right_pinky_3
										{
											OFFSET -0.003798 -0.018852 0.000167
											CHANNELS 3 Zrotation Yrotation Xrotation
											End Site
											{
												OFFSET 0.000000 0.000000 0.000000
											}
										}
									}
								}
								JOINT right_ring_1
								{
									OFFSET -0.095423 -0.012362 -0.027099
									CHANNELS 3 Zrotation Yrotation Xrotation
									JOINT right_ring_2
									{
										OFFSET -0.023561 -0.016057 -0.001895
										CHANNELS 3 Zrotation Yrotation Xrotation
										JOINT right_ring_3
										{
											OFFSET -0.004257 -0.023548 0.000816
											CHANNELS 3 Zrotation Yrotation Xrotation
											End Site
											{
												OFFSET 0.000000 0.000000 0.000000
											}
										}
									}
								}
								JOINT right_thumb_1
								{
									OFFSET -0.038613 -0.021074 0.025861
									CHANNELS 3 Zrotation Yrotation Xrotation
									JOINT right_thumb_2
									{
										OFFSET -0.021636 -0.017639 0.011623
										CHANNELS 3 Zrotation Yrotation Xrotation
										JOINT right_thumb_3
										{
											OFFSET -0.024004 -0.008353 0.006547
											CHANNELS 3 Zrotation Yrotation Xrotation
											End Site
											{
												OFFSET 0.000000 0.000000 0.000000
											}
										}
									}
								}
							}
						}
					}
				}
			}
		}
	}
}
MOTION
Frames: 4
Frame Time: 0.050000
0.055383 0.936427 -0.019211 -2.881586 11.202681 -0.303220 7.410361 -0.168709 3.525507 0.855958 0.406636 -4.212652 2.732354 8.415343 4.360457 0.000000 0.000000 0.000000 -3.481101 0.216164 -1.552068 0.966269 0.043031 4.566926 -0.332944 -1.011567 0.632470 0.000000 0.000000 0.000000 -2.462153 -0.185290 1.722875 -5.049814 0.191854 -11.536503 12.962450 2.125160 19.778475 2.094120 1.544700 -10.747532 0.000000 0.000000 0.000000 -8.305455 -3.567445 0.185363 -50.759234 -16.098156 -7.572096 -147.119151 -75.646336 150.543039 16.674884 -7.484446 -13.366895 -8.765285 -2.389458 0.090609 -12.236052 0.910702 0.182458 0.000000 0.000000 0.000000 -9.651469 -8.061508 -4.509339 -17.214069 -4.376669 -13.814072 0.000000 0.000000 0.000000 2.211658 -15.046102 -18.759978 -16.846760 -5.897704 -13.325319 0.000000 0.000000 0.000000 -11.667157 -9.468041 -5.013767 -16.334815 -8.245825 -18.723451 0.000000 0.000000 0.000000 9.359947 24.711415 17.304622 -3.796449 -15.371714 -4.220835 0.000000 0.000000 0.000000 10.982976 3.775786 2.417336 40.989338 21.121557 1.000891 -93.900236 69.846939 -69.217811 -19.254406 8.067646 -17.301305 9.828135 3.450044 0.072669 25.894347 -0.406756 -1.815376 0.000000 0.000000 0.000000 12.283392 9.627088 -4.907056 25.505065 6.888109 -16.884802 0.000000 0.000000 0.000000 5.662918 16.471183 -19.969270 18.648652 5.572017 -11.846003 0.000000 0.000000 0.000000 17.571695 10.740715 -4.634585 18.048465 10.298808 -21.998522 0.000000 0.000000 0.000000 -6.417938 -24.745552 16.949799 -0.579407 15.241272 -6.170761 0.000000 0.000000 0.000000 
0.055854 0.936749 -0.021851 -2.945931 10.233861 -0.498614 7.347814 -0.096755 4.136829 0.811934 0.478283 -4.886522 2.980672 9.074085 4.761835 0.000000 0.000000 0.000000 -3.575755 0.230872 -1.642375 1.005521 0.041986 4.515849 0.118939 -0.192939 0.819640 0.000000 0.000000 0.000000 -1.576764 -0.218628 3.107672 -5.565819 0.398456 -11.445652 13.082233 3.841381 18.948309 2.327323 1.495748 -10.451653 0.000000 0.000000 0.000000 -8.243147 -4.486679 0.617148 -50.098747 -17.598084 -7.384583 -147.058052 -75.812787 150.193803 17.265011 -6.890948 -13.637642 -7.356179 -2.655476 -0.084596 -10.876890 0.389111 -1.045937 0.000000 0.000000 0.000000 -8.986846 -9.137340 -4.911680 -15.902479 -4.378800 -14.092760 0.000000 0.000000 0.000000 3.556899 -15.598632 -19.538597 -17.533808 -4.744730 -10.335285 0.000000 0.000000 0.000000 -10.635678 -10.046777 -5.391324 -14.320457 -7.769126 -18.726755 0.000000 0.000000 0.000000 10.848236 23.885114 15.778953 -7.691108 -14.461981 -2.489629 0.000000 0.000000 0.000000 9.363444 7.196905 4.664407 31.367614 34.039962 2.451551 -69.874418 54.158508 -34.558773 -22.580459 1.874132 -24.703891 5.983241 4.699794 -0.310214 29.369756 2.410386 -2.956875 0.000000 0.000000 0.000000 11.986372 10.278786 -4.625070 21.883265 9.267893 -20.907588 0.000000 0.000000 0.000000 6.197852 18.711800 -22.047780 12.920835 4.387245 -9.922391 0.000000 0.000000 0.000000 17.547584 13.225775 -4.886386 12.695427 10.570323 -23.278979 0.000000 0.000000 0.000000 -7.129671 -24.018533 13.377129 1.704312 14.145216 -5.540423 0.000000 0.000000 0.000000 
0.055854 0.937394 -0.021851 -2.880139 10.491344 -0.101572 7.288842 -0.140144 3.566303 0.824610 0.461294 -4.725400 2.809339 8.926204 4.948312 0.000000 0.000000 0.000000 -3.566120 0.233023 -1.648980 0.901018 0.038214 3.838897 0.119911 -0.402816 1.237032 0.000000 0.000000 0.000000 -1.197667 -0.195632 2.849761 -5.762507 0.663818 -10.721502 13.246175 4.728251 18.839064 2.392070 1.716049 -11.848857 0.000000 0.000000 0.000000 -8.344190 -5.489643 1.067684 -49.814980 -19.510005 -7.191827 -146.127703 -75.563524 148.621786 18.711031 -5.892696 -13.139550 -7.958275 -2.822617 -0.044050 -10.520629 0.718443 -0.104353 0.000000 0.000000 0.000000 -8.472687 -8.495794 -4.587324 -16.180306 -4.201126 -13.642236 0.000000 0.000000 0.000000 3.985444 -15.066354 -18.631169 -15.791887 -5.527353 -12.731208 0.000000 0.000000 0.000000 -10.798296 -9.751900 -5.163611 -15.040945 -7.879593 -18.697222 0.000000 0.000000 0.000000 10.103373 23.904928 15.985987 -6.435132 -13.553489 -2.700606 0.000000 0.000000 0.000000 6.823989 9.592477 6.013026 19.765401 42.148919 0.740784 -51.175828 38.685460 -15.254596 -24.987487 -2.965366 -28.273090 3.378033 4.099121 -0.386434 22.755730 5.922269 -6.861492 0.000000 0.000000 0.000000 9.699265 11.189269 -4.718122 14.724904 10.066460 -24.107007 0.000000 0.000000 0.000000 3.478841 20.003164 -23.233835 5.249713 3.451054 -9.139556 0.000000 0.000000 0.000000 14.199459 14.477997 -5.588109 7.379319 9.907164 -24.050950 0.000000 0.000000 0.000000 -9.421775 -22.880133 10.329411 5.055630 12.678908 -4.000273 0.000000 0.000000 0.000000 
0.055618 0.938039 -0.023170 -3.010066 10.767480 -0.258327 7.501475 -0.173961 3.426572 0.745325 0.436930 -4.483276 2.652646 8.713633 5.002700 0.000000 0.000000 0.000000 -3.388993 0.223209 -1.588733 0.883324 0.040284 3.903236 0.078568 -0.609445 1.488460 0.000000 0.000000 0.000000 -0.644897 -0.264291 4.309156 -6.413332 0.782519 -11.441810 13.841241 5.126736 19.297138 2.713685 1.789446 -12.424632 0.000000 0.000000 0.000000 -8.584244 -5.859925 1.156652 -50.021729 -20.708706 -7.121878 -146.398918 -75.032095 148.563869 18.651956 -5.819132 -12.736989 -7.416939 -2.554368 -0.053218 -10.164224 0.827805 0.280465 0.000000 0.000000 0.000000 -8.605397 -8.654070 -4.671490 -15.256242 -3.785762 -12.853803 0.000000 0.000000 0.000000 3.971468 -15.160307 -18.713456 -15.017715 -5.114907 -12.075243 0.000000 0.000000 0.000000 -9.991331 -9.414366 -5.086494 -13.166609 -8.196028 -21.031241 0.000000 0.000000 0.000000 10.541830 24.118932 16.188110 -6.567974 -13.626475 -2.652144 0.000000 0.000000 0.000000 4.604714 11.868633 7.155643 10.664701 45.283127 -1.818927 -37.991017 26.333400 -6.434615 -23.524029 -4.337427 -29.621316 0.184478 4.791004 -0.740301 14.919647 6.678264 -8.029889 0.000000 0.000000 0.000000 6.268393 12.304371 -5.332134 10.013881 9.596342 -22.784079 0.000000 0.000000 0.000000 -0.260598 20.398780 -24.318799 1.420421 2.797777 -8.069411 0.000000 0.000000 0.000000 11.269950 15.268821 -6.558808 -0.698568 7.548854 -23.989901 0.000000 0.000000 0.000000 -12.573221 -21.650885 7.971580 9.646573 10.896863 -1.714448 0.000000 0.000000 0.000000 
